<mxfile host="app.diagrams.net" modified="2022-07-14T19:58:44.103Z" agent="5.0 (Macintosh; Intel Mac OS X 10_15_7) AppleWebKit/537.36 (KHTML, like Gecko) Chrome/103.0.0.0 Safari/537.36" etag="j9fYm_Tcp6jaX0qeaTBi" version="20.1.1" type="github">
  <diagram id="R2lEEEUBdFMjLlhIrx00" name="Page-1">
    <mxGraphModel dx="1796" dy="1525" grid="1" gridSize="10" guides="1" tooltips="1" connect="1" arrows="1" fold="1" page="1" pageScale="1" pageWidth="850" pageHeight="1100" math="0" shadow="0" extFonts="Permanent Marker^https://fonts.googleapis.com/css?family=Permanent+Marker">
      <root>
        <mxCell id="0" />
        <mxCell id="1" parent="0" />
        <mxCell id="RXnTxWHTMbPDA2lkVVUp-14" value="Patient Table" style="rounded=0;whiteSpace=wrap;html=1;strokeColor=#b85450;fillColor=#f8cecc;" vertex="1" parent="1">
          <mxGeometry x="110" y="60" width="120" height="60" as="geometry" />
        </mxCell>
        <mxCell id="RXnTxWHTMbPDA2lkVVUp-15" value="Physician Table" style="rounded=0;whiteSpace=wrap;html=1;fillColor=#f8cecc;strokeColor=#b85450;" vertex="1" parent="1">
          <mxGeometry x="470" y="60" width="120" height="60" as="geometry" />
        </mxCell>
        <mxCell id="RXnTxWHTMbPDA2lkVVUp-16" value="Patient Conditions Table" style="rounded=0;whiteSpace=wrap;html=1;fillColor=#f8cecc;strokeColor=#b85450;" vertex="1" parent="1">
          <mxGeometry x="110" y="240" width="120" height="60" as="geometry" />
        </mxCell>
        <mxCell id="RXnTxWHTMbPDA2lkVVUp-17" value="Assigned to&amp;nbsp;" style="rhombus;whiteSpace=wrap;html=1;fillColor=#dae8fc;strokeColor=#6c8ebf;" vertex="1" parent="1">
          <mxGeometry x="320" y="50" width="80" height="80" as="geometry" />
        </mxCell>
        <mxCell id="RXnTxWHTMbPDA2lkVVUp-18" value="Associated with" style="rhombus;whiteSpace=wrap;html=1;fillColor=#dae8fc;strokeColor=#6c8ebf;" vertex="1" parent="1">
          <mxGeometry x="130" y="140" width="80" height="80" as="geometry" />
        </mxCell>
        <mxCell id="RXnTxWHTMbPDA2lkVVUp-19" value="" style="endArrow=none;html=1;rounded=0;exitX=1;exitY=0.5;exitDx=0;exitDy=0;entryX=0;entryY=0.5;entryDx=0;entryDy=0;" edge="1" parent="1" source="RXnTxWHTMbPDA2lkVVUp-17" target="RXnTxWHTMbPDA2lkVVUp-15">
          <mxGeometry width="50" height="50" relative="1" as="geometry">
            <mxPoint x="420" y="130" as="sourcePoint" />
            <mxPoint x="470" y="80" as="targetPoint" />
          </mxGeometry>
        </mxCell>
        <mxCell id="RXnTxWHTMbPDA2lkVVUp-20" value="" style="endArrow=none;html=1;rounded=0;exitX=1;exitY=0.5;exitDx=0;exitDy=0;" edge="1" parent="1" source="RXnTxWHTMbPDA2lkVVUp-14">
          <mxGeometry width="50" height="50" relative="1" as="geometry">
            <mxPoint x="270" y="140" as="sourcePoint" />
            <mxPoint x="320" y="90" as="targetPoint" />
            <Array as="points" />
          </mxGeometry>
        </mxCell>
        <mxCell id="RXnTxWHTMbPDA2lkVVUp-21" value="" style="endArrow=none;html=1;rounded=0;exitX=0.5;exitY=0;exitDx=0;exitDy=0;" edge="1" parent="1" source="RXnTxWHTMbPDA2lkVVUp-18">
          <mxGeometry width="50" height="50" relative="1" as="geometry">
            <mxPoint x="120" y="170" as="sourcePoint" />
            <mxPoint x="170" y="120" as="targetPoint" />
          </mxGeometry>
        </mxCell>
        <mxCell id="RXnTxWHTMbPDA2lkVVUp-22" value="" style="endArrow=none;html=1;rounded=0;exitX=0.5;exitY=0;exitDx=0;exitDy=0;" edge="1" parent="1" source="RXnTxWHTMbPDA2lkVVUp-16">
          <mxGeometry width="50" height="50" relative="1" as="geometry">
            <mxPoint x="120" y="270" as="sourcePoint" />
            <mxPoint x="170" y="220" as="targetPoint" />
          </mxGeometry>
        </mxCell>
        <mxCell id="RXnTxWHTMbPDA2lkVVUp-23" value="1" style="text;html=1;align=center;verticalAlign=middle;resizable=0;points=[];autosize=1;strokeColor=none;fillColor=none;" vertex="1" parent="1">
          <mxGeometry x="245" y="65" width="30" height="30" as="geometry" />
        </mxCell>
        <mxCell id="RXnTxWHTMbPDA2lkVVUp-24" value="N" style="text;html=1;align=center;verticalAlign=middle;resizable=0;points=[];autosize=1;strokeColor=none;fillColor=none;" vertex="1" parent="1">
          <mxGeometry x="425" y="65" width="30" height="30" as="geometry" />
        </mxCell>
        <mxCell id="RXnTxWHTMbPDA2lkVVUp-25" value="N" style="text;html=1;align=center;verticalAlign=middle;resizable=0;points=[];autosize=1;strokeColor=none;fillColor=none;" vertex="1" parent="1">
          <mxGeometry x="170" y="210" width="30" height="30" as="geometry" />
        </mxCell>
        <mxCell id="RXnTxWHTMbPDA2lkVVUp-26" value="1" style="text;html=1;align=center;verticalAlign=middle;resizable=0;points=[];autosize=1;strokeColor=none;fillColor=none;" vertex="1" parent="1">
          <mxGeometry x="170" y="120" width="30" height="30" as="geometry" />
        </mxCell>
        <mxCell id="RXnTxWHTMbPDA2lkVVUp-27" value="patient" style="ellipse;whiteSpace=wrap;html=1;strokeColor=#d79b00;fillColor=#ffe6cc;" vertex="1" parent="1">
          <mxGeometry x="20" y="-70" width="110" height="50" as="geometry" />
        </mxCell>
        <mxCell id="RXnTxWHTMbPDA2lkVVUp-28" value="dateofbirth" style="ellipse;whiteSpace=wrap;html=1;strokeColor=#d79b00;fillColor=#ffe6cc;" vertex="1" parent="1">
          <mxGeometry x="150" y="-70" width="110" height="50" as="geometry" />
        </mxCell>
        <mxCell id="RXnTxWHTMbPDA2lkVVUp-29" value="age" style="ellipse;whiteSpace=wrap;html=1;strokeColor=#d79b00;fillColor=#ffe6cc;" vertex="1" parent="1">
          <mxGeometry x="275" y="-70" width="110" height="50" as="geometry" />
        </mxCell>
        <mxCell id="RXnTxWHTMbPDA2lkVVUp-30" value="Patient ID" style="ellipse;whiteSpace=wrap;html=1;strokeColor=#d79b00;fillColor=#ffe6cc;fontStyle=4" vertex="1" parent="1">
          <mxGeometry x="-110" y="-70" width="110" height="50" as="geometry" />
        </mxCell>
        <mxCell id="RXnTxWHTMbPDA2lkVVUp-31" value="sex" style="ellipse;whiteSpace=wrap;html=1;strokeColor=#d79b00;fillColor=#ffe6cc;" vertex="1" parent="1">
          <mxGeometry x="410" y="-70" width="110" height="50" as="geometry" />
        </mxCell>
        <mxCell id="RXnTxWHTMbPDA2lkVVUp-32" value="Physician ID" style="ellipse;whiteSpace=wrap;html=1;strokeColor=#d79b00;fillColor=#ffe6cc;" vertex="1" parent="1">
          <mxGeometry x="540" y="-70" width="110" height="50" as="geometry" />
        </mxCell>
        <mxCell id="RXnTxWHTMbPDA2lkVVUp-33" value="" style="endArrow=none;html=1;rounded=0;entryX=0.5;entryY=1;entryDx=0;entryDy=0;exitX=0.5;exitY=0;exitDx=0;exitDy=0;" edge="1" parent="1" source="RXnTxWHTMbPDA2lkVVUp-14" target="RXnTxWHTMbPDA2lkVVUp-30">
          <mxGeometry width="50" height="50" relative="1" as="geometry">
            <mxPoint x="-80" y="30" as="sourcePoint" />
            <mxPoint x="-30" y="-20" as="targetPoint" />
          </mxGeometry>
        </mxCell>
        <mxCell id="RXnTxWHTMbPDA2lkVVUp-34" value="" style="endArrow=none;html=1;rounded=0;entryX=0.5;entryY=1;entryDx=0;entryDy=0;exitX=0.5;exitY=0;exitDx=0;exitDy=0;" edge="1" parent="1" source="RXnTxWHTMbPDA2lkVVUp-14" target="RXnTxWHTMbPDA2lkVVUp-27">
          <mxGeometry width="50" height="50" relative="1" as="geometry">
            <mxPoint x="160" y="50" as="sourcePoint" />
            <mxPoint x="210" as="targetPoint" />
          </mxGeometry>
        </mxCell>
        <mxCell id="RXnTxWHTMbPDA2lkVVUp-35" value="" style="endArrow=none;html=1;rounded=0;entryX=0.5;entryY=1;entryDx=0;entryDy=0;" edge="1" parent="1" target="RXnTxWHTMbPDA2lkVVUp-28">
          <mxGeometry width="50" height="50" relative="1" as="geometry">
            <mxPoint x="170" y="60" as="sourcePoint" />
            <mxPoint x="220" y="10" as="targetPoint" />
          </mxGeometry>
        </mxCell>
        <mxCell id="RXnTxWHTMbPDA2lkVVUp-36" value="" style="endArrow=none;html=1;rounded=0;entryX=0.5;entryY=1;entryDx=0;entryDy=0;" edge="1" parent="1" target="RXnTxWHTMbPDA2lkVVUp-29">
          <mxGeometry width="50" height="50" relative="1" as="geometry">
            <mxPoint x="170" y="60" as="sourcePoint" />
            <mxPoint x="220" y="10" as="targetPoint" />
          </mxGeometry>
        </mxCell>
        <mxCell id="RXnTxWHTMbPDA2lkVVUp-37" value="" style="endArrow=none;html=1;rounded=0;exitX=0.5;exitY=0;exitDx=0;exitDy=0;entryX=0.5;entryY=1;entryDx=0;entryDy=0;" edge="1" parent="1" source="RXnTxWHTMbPDA2lkVVUp-14" target="RXnTxWHTMbPDA2lkVVUp-31">
          <mxGeometry width="50" height="50" relative="1" as="geometry">
            <mxPoint x="300" y="100" as="sourcePoint" />
            <mxPoint x="350" y="50" as="targetPoint" />
            <Array as="points" />
          </mxGeometry>
        </mxCell>
        <mxCell id="RXnTxWHTMbPDA2lkVVUp-38" value="" style="endArrow=none;html=1;rounded=0;" edge="1" parent="1">
          <mxGeometry width="50" height="50" relative="1" as="geometry">
            <mxPoint x="180" y="60" as="sourcePoint" />
            <mxPoint x="600" y="-20" as="targetPoint" />
          </mxGeometry>
        </mxCell>
        <mxCell id="RXnTxWHTMbPDA2lkVVUp-39" value="Patient ID" style="ellipse;whiteSpace=wrap;html=1;strokeColor=#d79b00;fillColor=#ffe6cc;fontStyle=4" vertex="1" parent="1">
          <mxGeometry x="-40" y="330" width="110" height="50" as="geometry" />
        </mxCell>
      </root>
    </mxGraphModel>
  </diagram>
</mxfile>
